<mxfile host="65bd71144e">
    <diagram id="0W6xU078XMUCxdAOZRj5" name="ページ1">
        <mxGraphModel dx="463" dy="419" grid="1" gridSize="10" guides="1" tooltips="1" connect="1" arrows="1" fold="1" page="1" pageScale="1" pageWidth="827" pageHeight="1169" math="0" shadow="0">
            <root>
                <mxCell id="0"/>
                <mxCell id="1" parent="0"/>
                <mxCell id="2" value="ユーザー&lt;div&gt;&lt;br&gt;&lt;/div&gt;" style="shape=umlActor;verticalLabelPosition=bottom;verticalAlign=top;html=1;outlineConnect=0;" vertex="1" parent="1">
                    <mxGeometry x="40" y="120" width="30" height="60" as="geometry"/>
                </mxCell>
                <mxCell id="3" value="ログイン画面" style="shape=umlBoundary;whiteSpace=wrap;html=1;" vertex="1" parent="1">
                    <mxGeometry x="120" y="30" width="100" height="80" as="geometry"/>
                </mxCell>
                <mxCell id="4" value="訪問者一覧" style="shape=umlBoundary;whiteSpace=wrap;html=1;" vertex="1" parent="1">
                    <mxGeometry x="120" y="210" width="100" height="80" as="geometry"/>
                </mxCell>
                <mxCell id="5" value="ログイン完了" style="shape=umlBoundary;whiteSpace=wrap;html=1;" vertex="1" parent="1">
                    <mxGeometry x="360" y="110" width="100" height="80" as="geometry"/>
                </mxCell>
                <mxCell id="6" value="ログイン&lt;div&gt;環境画面&lt;/div&gt;" style="shape=umlBoundary;whiteSpace=wrap;html=1;" vertex="1" parent="1">
                    <mxGeometry x="220" y="110" width="100" height="80" as="geometry"/>
                </mxCell>
                <mxCell id="7" value="" style="endArrow=open;endFill=1;endSize=12;html=1;entryX=0;entryY=0.517;entryDx=0;entryDy=0;entryPerimeter=0;" edge="1" parent="1" target="3">
                    <mxGeometry width="160" relative="1" as="geometry">
                        <mxPoint x="80" y="130" as="sourcePoint"/>
                        <mxPoint x="240" y="130" as="targetPoint"/>
                    </mxGeometry>
                </mxCell>
                <mxCell id="8" value="" style="endArrow=open;endFill=1;endSize=12;html=1;" edge="1" parent="1" target="6">
                    <mxGeometry width="160" relative="1" as="geometry">
                        <mxPoint x="220" y="90" as="sourcePoint"/>
                        <mxPoint x="260" y="30" as="targetPoint"/>
                    </mxGeometry>
                </mxCell>
                <mxCell id="9" value="" style="endArrow=open;endFill=1;endSize=12;html=1;entryX=-0.027;entryY=0.467;entryDx=0;entryDy=0;entryPerimeter=0;exitX=0.967;exitY=0.525;exitDx=0;exitDy=0;exitPerimeter=0;" edge="1" parent="1" source="6" target="5">
                    <mxGeometry width="160" relative="1" as="geometry">
                        <mxPoint x="330" y="150" as="sourcePoint"/>
                        <mxPoint x="370" y="91" as="targetPoint"/>
                    </mxGeometry>
                </mxCell>
                <mxCell id="10" value="" style="endArrow=open;endFill=1;endSize=12;html=1;entryX=0.987;entryY=0.242;entryDx=0;entryDy=0;entryPerimeter=0;exitX=0.367;exitY=0.958;exitDx=0;exitDy=0;exitPerimeter=0;" edge="1" parent="1" source="6" target="4">
                    <mxGeometry width="160" relative="1" as="geometry">
                        <mxPoint x="260" y="210" as="sourcePoint"/>
                        <mxPoint x="300" y="151" as="targetPoint"/>
                    </mxGeometry>
                </mxCell>
            </root>
        </mxGraphModel>
    </diagram>
</mxfile>